<?xml version="1.0" encoding="UTF-8"?>
<svg version="1.1" viewBox="0 0 2012 1896" width="1280" height="1280" xmlns="http://www.w3.org/2000/svg">
<path transform="translate(0)" d="m0 0h2012v1896h-2012z" fill="#1C1C1C"/>
<path transform="translate(0)" d="m0 0h2012v1896h-2012zm440 74-14 3-11 7-7 8-4 8-2 8-1 190-35 6-48 8-29 6-21 7-12 7-6 8-3 10-1 23-119 1-9 3-11 8-7 9-3 8-1 7v1335l3 12 6 10 8 7 10 5 4 1 732 1 19 2 12 4 6 4 7 7 10 15 8 10 11 12 13 12 15 11 21 12 17 7 21 6 21 3h28l21-3 21-6 17-7 17-9 17-12 12-11 7-6 9-11 8-10 12-17 6-5 8-4 16-3 14-1 649-1 8-2 10-5 9-9 4-8 2-7 1-24-1-1320-4-10-4-6-4-5-9-6-10-3-24-1-94 1-1-21-3-10-6-9-8-7-8-4-30-9-42-11-49-11-44-8-47-7-37-4-48-3h-41l-39 3-46 6-43 8-40 9-48 13-39 12-43 15-43 17-29 13-6-2-19-7-26-8-117-30-36-10-35-11-37-13-24-10-24-11-30-15-23-13-22-13-17-11-30-20-17-12-38-28-28-22-16-13-11-9-26-22-10-7-9-4z" fill="#FEFFFE"/>
<path transform="translate(1420,348)" d="m0 0h49l43 3 42 5 49 8 43 9 48 12 11 3 2 2v1158l-10-2-48-12-40-8-38-6-45-5-56-3h-30l-38 2-39 5-44 8-50 11-54 13-59 16-47 14-12 4h-3l-1-125v-411l1-612 5-4 35-15 39-15 28-10 44-14 41-11 31-7 41-7 35-4z" fill="#FEFFFE"/>
<path transform="translate(480,196)" d="m0 0 4 2 11 9 14 11 21 16 14 10 17 12 27 18 18 11 20 12 21 12 32 17 22 11 29 13 27 11 38 14 36 12 42 13 56 15 50 12 35 8 3 2v1148l-8-1-53-17-53-18-162-57-29-11-25-11-30-15-24-14-20-12-15-10-16-11-18-13-15-12-14-11-14-12-26-24-9-10-5-6-1-3z" fill="#FEFFFE"/>
<path transform="translate(175,451)" d="m0 0h71l1 1 1 1156 4 11 6 8 7 6 10 5 5 1h13l58-15 39-9 47-9 44-7 42-5 34-3 41-2h52l34 2 32 5 37 8 63 16 67 19 58 17 51 16 26 8 22 7 9 2h12l23-11 20-9 28-11 28-10 40-13 46-13 48-12 47-10 42-7 33-3 17-1h47l35 2 47 5 38 6 35 7 52 13 29 9 21 7h15l11-4 10-7 8-11 3-10v-448l1-706 1-1h72l1 171v1078l-3 2h-610l-21 2-16 3-18 6-17 9-11 8-10 9-12 15-7 11-9 11-9 9-13 9-16 8-14 4-14 2h-11l-18-3-16-6-12-7-10-8-13-13-14-20-8-10-11-11-13-9-16-8-14-5-19-4-22-2h-688l-1-3v-1246z" fill="#FEFFFE"/>
<path transform="translate(395,378)" d="m0 0h7l1 961 3 10 6 8 12 13 8 7v2l4 2 12 12 8 7 10 9 11 9 14 12 14 11 13 10 20 15 19 13 21 14 21 13 7 5v1l-47 2-48 4-48 6-49 8-46 9-35 8-8 1-1-213v-843l1-103 24-5z" fill="#FEFFFE"/>
<path transform="translate(1400,531)" d="m0 0h34l35 3 34 5 39 8 35 9 33 10 18 7 8 6 7 8 4 9 1 5v13l-3 10-6 9-8 7-10 5-4 1h-14l-16-5-33-10-37-9-29-6-27-4-22-2h-43l-26 3-36 7-28 7-35 11-30 11-31 13-21 10-6 2h-16l-11-4-10-8-7-10-3-11v-11l4-13 7-9 8-6 17-9 33-14 34-13 40-13 48-12 34-6 25-3z" fill="#1C1C1C"/>
<path transform="translate(1393,890)" d="m0 0h47l39 4 41 7 39 9 35 10 30 10 10 6 8 9 5 12 1 7-2 15-4 8-9 10-8 5-10 3h-11l-15-4-31-10-30-8-33-7-34-5-20-2-21-1h-13l-23 2-34 5-31 7-28 8-36 12-30 12-29 13-9 4-7 2h-11l-13-4-9-7-6-7-4-8-1-3v-18l4-11 6-8 11-8 25-12 29-12 27-10 36-12 33-9 45-9 31-4z" fill="#1C1C1C"/>
<path transform="translate(1410,710)" d="m0 0h13l32 2 33 4 34 6 39 9 41 12 21 7 10 6 5 4 7 11 3 11v10l-4 13-6 8-8 7-12 5-8 1-12-2-38-12-39-10-29-6-35-5-24-2h-31l-29 3-24 4-27 6-26 7-36 12-31 12-29 13-17 7h-17l-10-4-9-6-8-11-3-10v-13l3-11 6-9 8-7 16-8 15-7 39-16 31-11 30-9 35-9 25-5 27-4 20-2z" fill="#1C1C1C"/>
</svg>
