<?xml version="1.0" encoding="UTF-8"?>
<svg version="1.1" xmlns="http://www.w3.org/2000/svg" width="512" height="512">
<path d="M0 0 C168.96 0 337.92 0 512 0 C512 12.21 512 24.42 512 37 C504.41 37 496.82 37 489 37 C489 63.4 489 89.8 489 117 C493.29 117 497.58 117 502 117 C502 140.43 502 163.86 502 188 C483.19 188 464.38 188 445 188 C446.98 193.94 448.96 199.88 451 206 C451.85275834 209.35114866 452.63678658 212.55736616 453.25 215.9375 C453.4056543 216.76556152 453.56130859 217.59362305 453.72167969 218.44677734 C463.13950632 270.46200641 453.41682081 325.20942167 423.29052734 369.13769531 C420.92576476 372.47609548 418.483195 375.74910322 416 379 C415.31550781 379.91523438 414.63101562 380.83046875 413.92578125 381.7734375 C410.04064859 386.8070056 405.79843591 391.50741863 401.5 396.1875 C400.97801025 396.75815186 400.45602051 397.32880371 399.91821289 397.91674805 C364.99435721 435.37500665 313.34604134 455.96829617 262.78076172 458.09326172 C258.18055118 458.2228602 253.5986943 458.14651544 249 458 C247.75605469 457.97035156 246.51210937 457.94070313 245.23046875 457.91015625 C203.61866128 456.18160092 159.2045363 439.82152023 128 412 C126.71222656 410.85724609 126.71222656 410.85724609 125.3984375 409.69140625 C123.70648725 408.17580731 122.02128109 406.65263716 120.34375 405.12109375 C118.20075688 403.18168497 116.01655362 401.30670701 113.8125 399.4375 C101.002312 388.24015477 90.24506983 372.7569304 82 358 C81.58008789 357.25830566 81.16017578 356.51661133 80.72753906 355.75244141 C54.76067061 309.48571092 47.66965196 254.8971392 61.6953125 203.5625 C62.12643514 202.04059275 62.56111347 200.51968649 63 199 C63.18788086 198.34128906 63.37576172 197.68257812 63.56933594 197.00390625 C67.92300491 182.0726066 74.79907727 167.75050572 82 154 C80.35 153.34 78.7 152.68 77 152 C77 114.05 77 76.1 77 37 C51.59 37 26.18 37 0 37 C0 24.79 0 12.58 0 0 Z M424 37 C423.72736674 50.97944497 423.5078765 64.9570846 423.37825394 78.93860149 C423.31599677 85.43298396 423.231754 91.92543186 423.09472656 98.41870117 C422.96298459 104.70184231 422.8923112 110.98313999 422.86147308 117.26755714 C422.83953858 119.64803865 422.79671249 122.02843526 422.73123932 124.40811729 C422.29083012 141.10056415 425.11283869 151.70768016 434.4812851 165.5443058 C437.11794127 169.80766112 439.05294938 174.38997313 441 179 C441.33 179 441.66 179 442 179 C442 158.54 442 138.08 442 117 C448.27 117 454.54 117 461 117 C461 90.6 461 64.2 461 37 C448.79 37 436.58 37 424 37 Z M381 168 C380.70829092 170.8017367 380.70829092 170.8017367 382 174 C384.52046217 175.79051572 387.0935406 177.20330328 389.84765625 178.60546875 C390.55792969 179.06566406 391.26820313 179.52585938 392 180 C392 183 392 186 392 189 C385.05825243 190.41990291 385.05825243 190.41990291 382 189 C380.75 186.9375 380.75 186.9375 380 185 C381.98 185.33 383.96 185.66 386 186 C386.33 185.01 386.66 184.02 387 183 C386.08476562 182.38511719 385.16953125 181.77023438 384.2265625 181.13671875 C383.025843 180.32060471 381.82533306 179.5041823 380.625 178.6875 C380.02171875 178.28337891 379.4184375 177.87925781 378.796875 177.46289062 C375.88323163 175.47190099 373.98035421 173.97053132 372 171 C371.4225 171.66 370.845 172.32 370.25 173 C368 175 368 175 364 175 C364.31082872 176.75029762 364.62373179 178.50022694 364.9375 180.25 C365.11152344 181.22453125 365.28554688 182.1990625 365.46484375 183.203125 C365.90135133 185.48443468 366.43666368 187.74665473 367 190 C369.97 189.67 372.94 189.34 376 189 C376 192.63 376 196.26 376 200 C378.72838435 200.81520635 381.45764417 201.62724843 384.1875 202.4375 C384.95642578 202.66759766 385.72535156 202.89769531 386.51757812 203.13476562 C390.32525141 204.26235986 394.08151762 205.3168177 398 206 C398 204.02 398 202.04 398 200 C406.62912983 199.04513727 406.62912983 199.04513727 409.91796875 201.3359375 C410.79388672 202.15964844 410.79388672 202.15964844 411.6875 203 C416.48066865 207.2275152 421.9981965 206.50292946 428 206.2109375 C429.485 206.10652344 429.485 206.10652344 431 206 C430.00956295 201.16371695 429.04301154 196.52381127 427 192 C426.32453125 191.97421875 425.6490625 191.9484375 424.953125 191.921875 C417.7620031 191.46463604 417.7620031 191.46463604 414.4375 189.4375 C412.3838212 185.95517507 412.26820429 183.02306429 412 179 C410.04009568 179.20261482 410.04009568 179.20261482 408 180 C406.86640663 181.74128668 406.86640663 181.74128668 406.25 183.875 C406.00765625 184.57367188 405.7653125 185.27234375 405.515625 185.9921875 C404.87563099 188.13879138 404.87563099 188.13879138 405 191 C397.8630137 183.8630137 397.8630137 183.8630137 397.375 179.8125 C396.35058381 174.82754564 394.10818308 172.36222844 390.17578125 169.2421875 C386.86974384 167.3547191 384.72064075 167.45740656 381 168 Z M419 175 C419 177.64 419 180.28 419 183 C419.99 182.67 420.98 182.34 422 182 C421.34 179.69 420.68 177.38 420 175 C419.67 175 419.34 175 419 175 Z M290.54638672 193.22827148 C287.45107077 194.20290655 284.35274313 195.1674841 281.25390625 196.13085938 C279.28367451 196.74682148 277.3136155 197.3633364 275.34375 197.98046875 C274.41792114 198.26899216 273.49209229 198.55751556 272.53820801 198.8547821 C271.69222046 199.12208633 270.84623291 199.38939056 269.97460938 199.66479492 C269.2286853 199.89921799 268.48276123 200.13364105 267.7142334 200.37516785 C265.99357601 200.86569162 265.99357601 200.86569162 265 202 C264.90653085 203.65738443 264.88255023 205.31874644 264.88647461 206.97875977 C264.88655014 208.03978409 264.88662567 209.10080841 264.88670349 210.19398499 C264.89186478 211.348134 264.89702606 212.50228302 264.90234375 213.69140625 C264.9037587 214.86638168 264.90517365 216.04135712 264.90663147 217.25193787 C264.91225008 221.02215064 264.92480574 224.79230504 264.9375 228.5625 C264.9425126 231.11132727 264.94707592 233.66015547 264.95117188 236.20898438 C264.96137669 242.47269709 264.98094848 248.73628284 265 255 C279.19 255 293.38 255 308 255 C308 249.06 308 243.12 308 237 C308.99 237 309.98 237 311 237 C311 235.02 311 233.04 311 231 C309.68 231 308.36 231 307 231 C306.44140625 227.9296875 306.44140625 227.9296875 307 224 C309.62757895 221.20124077 312.73337234 219.21433305 315.9375 217.125 C316.78763672 216.54492188 317.63777344 215.96484375 318.51367188 215.3671875 C320.07970134 214.2990431 321.65259862 213.24085414 323.23413086 212.19580078 C324.94382829 211.11917588 324.94382829 211.11917588 326 210 C326.07226502 208.14712498 326.0838122 206.29166122 326.0625 204.4375 C326.05347656 203.42558594 326.04445313 202.41367188 326.03515625 201.37109375 C326.02355469 200.58863281 326.01195312 199.80617187 326 199 C326.7425 198.71125 327.485 198.4225 328.25 198.125 C330.90454222 197.11385908 330.90454222 197.11385908 332.859375 195.9140625 C335.95926147 194.59038835 338.89874603 194.56118078 342.25 194.375 C343.51328125 194.30023438 344.7765625 194.22546875 346.078125 194.1484375 C347.52445313 194.07496094 347.52445313 194.07496094 349 194 C349.33 193.01 349.66 192.02 350 191 C348.87980469 190.96261719 347.75960937 190.92523438 346.60546875 190.88671875 C345.1327791 190.82105743 343.66012434 190.75461014 342.1875 190.6875 C341.44951172 190.66494141 340.71152344 190.64238281 339.95117188 190.61914062 C334.48596334 190.34711667 334.48596334 190.34711667 332.03125 188.59375 C330.84216593 186.75607462 330.3704403 185.14855372 330 183 C317.09548484 183 302.69010333 189.4024791 290.54638672 193.22827148 Z M200 188 C199.7525 188.99 199.505 189.98 199.25 191 C197.1224089 196.12697563 192.49616821 198.26870746 187.91015625 201.0078125 C184.83733192 203.11135667 182.94477106 204.82496014 181 208 C180.72984667 210.90675337 180.72984667 210.90675337 181.25 213.8125 C181.44335938 215.27623047 181.44335938 215.27623047 181.640625 216.76953125 C181.75921875 217.50558594 181.8778125 218.24164063 182 219 C179.03 218.01 176.06 217.02 173 216 C173 213.69 173 211.38 173 209 C168.05 209 163.1 209 158 209 C157.67 211.165625 157.34 213.33125 157 215.5625 C156.814375 216.78066406 156.62875 217.99882812 156.4375 219.25390625 C156.01444923 222.87627848 155.92498575 226.35712046 156 230 C157.65 229.34 159.3 228.68 161 228 C161.38281159 233.23175837 160.21854707 236.37802694 158 241 C161.3 241.66 164.6 242.32 168 243 C168.33 246.96 168.66 250.92 169 255 C172.27132607 255.08081043 175.54066421 255.14040709 178.8125 255.1875 C179.74126953 255.21263672 180.67003906 255.23777344 181.62695312 255.26367188 C182.51962891 255.27333984 183.41230469 255.28300781 184.33203125 255.29296875 C185.15421143 255.3086792 185.9763916 255.32438965 186.82348633 255.34057617 C189.50594356 254.92083104 190.18321158 253.92987847 192 252 C194.8828125 252.109375 194.8828125 252.109375 198.125 252.75 C199.20007813 252.95109375 200.27515625 253.1521875 201.3828125 253.359375 C204 254 204 254 205 255 C208.10230144 255.08873532 211.18287359 255.11525687 214.28515625 255.09765625 C215.1097937 255.09664917 215.93443115 255.09564209 216.78405762 255.09460449 C219.87688581 255.08935592 222.96969424 255.07539477 226.0625 255.0625 C232.971875 255.041875 239.88125 255.02125 247 255 C247 237.51 247 220.02 247 202 C240.83949556 199.65224039 240.83949556 199.65224039 234.61938477 197.6496582 C233.86242813 197.42965652 233.1054715 197.20965485 232.32557678 196.98298645 C231.53880051 196.75785873 230.75202423 196.53273102 229.94140625 196.30078125 C229.1116478 196.0608696 228.28188934 195.82095795 227.42698669 195.57377625 C225.69044357 195.07234749 223.95346305 194.57243118 222.21606445 194.07397461 C219.54470794 193.30739434 216.8748027 192.53591434 214.20507812 191.76367188 C212.51310262 191.27575796 210.82104817 190.78811771 209.12890625 190.30078125 C208.32796036 190.06958084 207.52701447 189.83838043 206.70179749 189.60017395 C203.40112914 188.48629904 203.40112914 188.48629904 200 188 Z M86 189 C77.76365391 210.08617812 73 232.31798896 73 255 C94.12 255 115.24 255 137 255 C137 252.36 137 249.72 137 247 C135.26363281 246.61521484 135.26363281 246.61521484 133.4921875 246.22265625 C119.5880454 242.84647844 119.5880454 242.84647844 115.8125 237.5625 C114.51953125 235.37890625 114.51953125 235.37890625 114 233 C114.56847656 231.56333984 114.56847656 231.56333984 115.1484375 230.09765625 C116.41161108 226.91553154 116.41161108 226.91553154 114.33203125 223.9921875 C113.5067258 222.9415404 112.6659825 221.90288911 111.8125 220.875 C107.25398745 214.93412264 105.17032278 209.46585223 104 202 C103.01 202 102.02 202 101 202 C101.03073128 209.22185013 102.67481969 213.72329111 106.6328125 219.7265625 C108.26848129 222.44644603 108.83361938 224.83876823 109 228 C106.36 227.67 103.72 227.34 101 227 C100.7525 226.319375 100.505 225.63875 100.25 224.9375 C99.0792394 221.88969452 99.0792394 221.88969452 96.9375 219.125 C94.02749362 214.34579243 94.56101031 208.74564712 94.56640625 203.328125 C94.35040041 199.84454877 94.35040041 199.84454877 91.58984375 198.046875 C89.15653114 196.8750788 89.15653114 196.8750788 87 197 C87 194.36 87 191.72 87 189 C86.67 189 86.34 189 86 189 Z M138 220 C135.36415088 225.16626428 134.51119528 228.15930457 136 234 C136.66 234.66 137.32 235.32 138 236 C138.33 230.72 138.66 225.44 139 220 C138.67 220 138.34 220 138 220 Z M154 253 C154 253.66 154 254.32 154 255 C154.66 254.67 155.32 254.34 156 254 C155.34 253.67 154.68 253.34 154 253 Z M74 272 C74.76945269 283.77461809 74.76945269 283.77461809 76.6875 295.25 C76.94805176 296.44387329 76.94805176 296.44387329 77.21386719 297.66186523 C82.37979297 320.35120216 91.97626844 341.75253831 105 361 C107.86162079 360.39250069 110.07953074 359.5237409 112.58984375 358.03125 C113.28223145 357.62890137 113.97461914 357.22655273 114.68798828 356.81201172 C115.43032715 356.37904785 116.17266602 355.94608398 116.9375 355.5 C126.92574336 349.79094571 137.35451108 345.3272029 148 341 C147.83395264 340.23671387 147.66790527 339.47342773 147.49682617 338.68701172 C143.20553786 318.82770939 139.25538879 299.02161968 138.2109375 278.6796875 C138.05472862 275.74955502 138.05472862 275.74955502 137 272 C116.21 272 95.42 272 74 272 Z M155 272 C155 279.86686334 155.23999646 286.97776128 156.1875 294.6875 C156.31624512 295.75242676 156.44499023 296.81735352 156.57763672 297.91455078 C158.16080723 310.2589284 160.05299473 323.15898419 164 335 C173.68554436 332.7392746 183.36054531 330.45165321 193 328 C190.21466571 324.88009102 188.15654359 324.46183818 184 324 C183.97292969 322.99582031 183.94585937 321.99164063 183.91796875 320.95703125 C183.30984194 316.665701 181.13826315 314.62223141 178.18408203 311.60888672 C173.72194879 307.02801161 169.73182081 302.77380837 169.26953125 296.16796875 C169.45790472 290.28917138 170.21266275 285.01713775 174.1875 280.53125 C176.41987988 279.01437649 178.4642249 277.9078701 181 277 C180.67 275.35 180.34 273.7 180 272 C171.75 272 163.5 272 155 272 Z M265 272 C265 277.94 265 283.88 265 290 C269.29 290 273.58 290 278 290 C278.66 291.65 279.32 293.3 280 295 C282.66043371 298.21086827 285.05735118 299.68578373 289 301 C287.4688728 306.92304471 285.69982058 310.96878208 281.20703125 315.19921875 C279.48331308 317.77085006 279.92083309 319.96988011 280 323 C280.98468262 323.12004395 281.96936523 323.24008789 282.98388672 323.36376953 C303.30475534 325.86504364 323.151369 328.84808581 343 334 C344.33299117 334.334699 345.66620636 334.66851333 347 335 C349.7558835 325.29577192 351.66708408 315.59547424 353.1875 305.625 C353.35411133 304.53268066 353.52072266 303.44036133 353.69238281 302.31494141 C355.19793134 292.14244154 356.1761152 282.29295506 356 272 C355.06615479 272.03552979 354.13230957 272.07105957 353.17016602 272.10766602 C349.71700422 272.23661333 346.26374148 272.36097112 342.81030273 272.48217773 C341.31349062 272.53566434 339.81674337 272.5909987 338.32006836 272.64819336 C336.17315668 272.72991956 334.02610207 272.8050746 331.87890625 272.87890625 C329.93866577 272.94960327 329.93866577 272.94960327 327.95922852 273.02172852 C325 273 325 273 324 272 C322.15881971 271.90618698 320.31402359 271.88256046 318.47045898 271.88647461 C316.69873573 271.88658791 316.69873573 271.88658791 314.89122009 271.88670349 C312.96313255 271.89444542 312.96313255 271.89444542 310.99609375 271.90234375 C309.68794205 271.9037587 308.37979034 271.90517365 307.03199768 271.90663147 C303.54837141 271.9104559 300.06478661 271.92028554 296.58117676 271.93133545 C293.02873292 271.94155118 289.47628241 271.94612944 285.92382812 271.95117188 C278.94919996 271.96190788 271.97460624 271.97950407 265 272 Z M373 276 C373 278.31 373 280.62 373 283 C373.33 283 373.66 283 374 283 C374 280.69 374 278.38 374 276 C373.67 276 373.34 276 373 276 Z M372 289 C371.93530518 289.57105469 371.87061035 290.14210938 371.80395508 290.73046875 C370.34090398 303.36922089 368.40602262 315.77080431 365.6262207 328.19140625 C365.41570068 329.14144531 365.20518066 330.09148437 364.98828125 331.0703125 C364.79790283 331.90320801 364.60752441 332.73610352 364.41137695 333.59423828 C363.98160211 336.1075922 363.9282865 338.455163 364 341 C367.12254943 342.33912585 370.24842358 343.67030658 373.375 345 C374.70917969 345.57234375 374.70917969 345.57234375 376.0703125 346.15625 C376.92109375 346.5171875 377.771875 346.878125 378.6484375 347.25 C379.43395996 347.58515625 380.21948242 347.9203125 381.02880859 348.265625 C382.96176935 349.11637101 382.96176935 349.11637101 385 349 C385.28993995 344.96017001 385.45026463 341.03119278 385 337 C382.58333229 334.24958334 382.58333229 334.24958334 380 332 C378.91740915 325.61271398 380.73966909 321.87031121 384.00390625 316.39453125 C385.25720386 313.3817021 384.84521399 312.12132014 384 309 C382.89409761 306.55612987 382.89409761 306.55612987 381.49609375 304.13671875 C381.00302734 303.25048828 380.50996094 302.36425781 380.00195312 301.45117188 C379.22754883 300.0831543 379.22754883 300.0831543 378.4375 298.6875 C377.91736328 297.75615234 377.39722656 296.82480469 376.86132812 295.86523438 C375.58023026 293.57336205 374.29297895 291.28518387 373 289 C372.67 289 372.34 289 372 289 Z M272 344 C269.69 344.33 267.38 344.66 265 345 C265 376.02 265 407.04 265 439 C285.46175479 436.44228065 301.83420229 422.17985664 314.4296875 406.546875 C324.20514653 393.44668988 342 368.16636068 342 351 C324.02832824 345.88321131 305.96684455 342.43406087 287.375 340.5 C286.40916992 340.3863208 285.44333984 340.2726416 284.44824219 340.15551758 C278.64855723 339.62738002 276.42358317 339.95385567 272 344 Z M194.2734375 345.0234375 C193.32339844 345.24 192.37335938 345.4565625 191.39453125 345.6796875 C189.89986328 346.02386719 189.89986328 346.02386719 188.375 346.375 C187.40175781 346.59671875 186.42851562 346.8184375 185.42578125 347.046875 C179.93395827 348.30341592 174.46013831 349.61226889 169 351 C176.68131717 375.40718867 188.18915867 396.62691147 205 416 C205.82371094 416.95132813 205.82371094 416.95132813 206.6640625 417.921875 C215.69261055 427.61755714 228.99551311 436.19511067 242 439 C243.65 439 245.3 439 247 439 C247 419.53 247 400.06 247 380 C246.34 381.32 245.68 382.64 245 384 C242.3125 385.0625 242.3125 385.0625 239 386 C237.2675 386.7734375 237.2675 386.7734375 235.5 387.5625 C232.25903972 388.89360868 229.46132499 389.5778872 226 390 C226 390.99 226 391.98 226 393 C227.32 393.33 228.64 393.66 230 394 C229.55990101 396.64059394 229.10504868 398.79573867 227.875 401.1875 C227.58625 401.785625 227.2975 402.38375 227 403 C227.33 403.66 227.66 404.32 228 405 C229.98 405 231.96 405 234 405 C233.77441406 405.79664063 233.54882812 406.59328125 233.31640625 407.4140625 C232.54363906 410.70533002 231.97832542 413.61443057 232 417 C233.59283004 419.18632288 235.0747335 420.26186149 237.3984375 421.62109375 C239 423 239 423 239.2265625 425.66015625 C239.11441406 426.81837891 239.11441406 426.81837891 239 428 C231.98067375 428.19003252 227.17652712 427.84119637 221.875 422.9375 C220.81925781 421.83728516 220.81925781 421.83728516 219.7421875 420.71484375 C218.16986864 418.76616937 218.16986864 418.76616937 216 419 C215.6596875 418.0409375 215.6596875 418.0409375 215.3125 417.0625 C214.17695887 414.12233516 214.17695887 414.12233516 212.75390625 412.2265625 C208.82142948 406.41139855 208.82529338 401.57785455 209.171875 394.79785156 C209.26143395 391.6200015 209.28889591 389.47525411 207.61328125 386.71875 C207.03964844 386.1309375 206.46601563 385.543125 205.875 384.9375 C203.16491382 382.14509812 202.99725028 381.22341446 203.046875 377.19140625 C203.493529 373.41695882 204.1973184 369.71361126 205 366 C203.68 365.67 202.36 365.34 201 365 C201 358.07 201 351.14 201 344 C198.62229345 344 196.59416269 344.49270039 194.2734375 345.0234375 Z M140.625 361.5625 C139.63161621 362.01415527 138.63823242 362.46581055 137.61474609 362.93115234 C130.46883833 366.22342832 123.64215469 369.76807866 117 374 C118.49083371 379.42121348 122.17374682 382.66924669 126.0625 386.5 C126.77277344 387.2027002 127.48304687 387.90540039 128.21484375 388.62939453 C145.01811096 404.92782674 170.34106026 424.95482402 194 429 C193.1283774 427.81001879 192.25245401 426.62318786 191.375 425.4375 C190.88773437 424.77621094 190.40046875 424.11492187 189.8984375 423.43359375 C188.35934279 421.46063901 186.77616748 419.59541553 185.125 417.71875 C181.9504861 414.0361759 179.24903522 410.15048071 176.625 406.0625 C176.15022217 405.32306152 175.67544434 404.58362305 175.1862793 403.82177734 C165.91569024 389.13201239 159.38918732 373.1020428 153 357 C148.70974501 357 144.468766 359.80892726 140.625 361.5625 Z M358 357 C357.79955078 357.52207031 357.59910156 358.04414063 357.39257812 358.58203125 C352.83620059 370.38108599 347.97487761 381.84728583 342 393 C341.67531738 393.61069336 341.35063477 394.22138672 341.01611328 394.85058594 C334.21080698 407.53982308 325.82562219 418.5007536 316 429 C316.66 429.33 317.32 429.66 318 430 C320.38529714 429.14744864 322.63397659 428.22780979 324.9375 427.1875 C325.99300049 426.71534058 325.99300049 426.71534058 327.06982422 426.23364258 C341.24514557 419.78509685 354.74813116 412.6665106 367 403 C367.53786133 402.57638184 368.07572266 402.15276367 368.62988281 401.71630859 C375.34505135 396.36068978 381.62347581 390.57928604 387.75 384.5625 C388.35908203 383.97114258 388.96816406 383.37978516 389.59570312 382.77050781 C390.15708984 382.2081543 390.71847656 381.64580078 391.296875 381.06640625 C391.79541992 380.57084229 392.29396484 380.07527832 392.80761719 379.56469727 C394.19254835 377.74732957 394.59183048 376.22958085 395 374 C387.87063796 369.89268604 380.53747317 366.25105398 373.125 362.6875 C372.20952393 362.24293457 371.29404785 361.79836914 370.35083008 361.34033203 C369.47450928 360.92251465 368.59818848 360.50469727 367.6953125 360.07421875 C366.91172363 359.69869873 366.12813477 359.32317871 365.32080078 358.9362793 C362.89153693 357.95624281 360.57851053 357.43279492 358 357 Z " fill="#000000" transform="translate(0,27)"/>
</svg>
